<?xml version="1.0" encoding="UTF-8" standalone="no"?>
<!-- Created with Inkscape (http://www.inkscape.org/) -->
<svg
   xmlns:svg="http://www.w3.org/2000/svg"
   xmlns="http://www.w3.org/2000/svg"
   version="1.0"
   width="151"
   height="201"
   id="svg2">
  <defs
     id="defs4" />
  <g
     transform="translate(-183.0369,-334.66815)"
     id="layer1">
    <path
       d="M 204.55253,360.12128 L 186.89628,367.71503 C 186.89628,367.71503 213.39628,378.85634 213.39628,401.84003 C 213.39628,425.53075 185.99003,438.77753 185.99003,438.77753 L 206.33378,446.02753 C 206.33378,446.02753 240.08378,429.58828 240.08378,401.65253 C 240.08378,372.83684 204.55253,360.12128 204.55253,360.12128 z M 312.55253,360.12128 C 312.55253,360.12128 276.99003,372.83684 276.99003,401.65253 C 276.99003,429.58829 310.77128,446.02753 310.77128,446.02753 L 331.08378,438.77753 C 331.08378,438.77753 303.70878,425.53075 303.70878,401.84003 C 303.70878,378.85634 330.20878,367.71503 330.20878,367.71503 L 312.55253,360.12128 z M 245.24003,432.24628 L 245.05253,510.21503 L 271.92753,510.21503 L 271.92753,432.24628 L 245.24003,432.24628 z"
       id="path2491"
       style="fill:#000000;stroke:#000000" />
  </g>
</svg>
