<?xml version="1.0" encoding="UTF-8" standalone="no"?>
<!-- Created with Inkscape (http://www.inkscape.org/) -->
<svg
   xmlns:svg="http://www.w3.org/2000/svg"
   xmlns="http://www.w3.org/2000/svg"
   version="1.0"
   width="150"
   height="200"
   id="svg2">
  <defs
     id="defs4" />
  <g
     transform="translate(-183.5369,-335.16814)"
     id="layer1">
    <path
       d="M 246.4744,409.05387 L 289.5994,360.80387 L 309.5994,378.55387 L 265.3494,428.05387 C 265.3494,428.05387 289.5994,450.37024 289.5994,471.05387 C 289.5994,502.1746 243.8494,514.17887 243.8494,514.17887 L 234.4744,489.30387 C 234.4744,489.30387 262.7244,481.50909 262.7244,469.92887 C 262.7244,453.48769 207.4744,424.20688 207.4744,386.30387 C 207.4744,367.56471 227.12973,356.15742 227.12973,356.15742 L 243.5994,376.67887 C 243.5994,376.67887 235.4744,381.67887 235.4744,389.05387 C 235.4744,399.30387 246.4744,409.05387 246.4744,409.05387 L 246.4744,409.05387 z"
       id="path2776"
       style="fill:#000000;stroke:#000000" />
  </g>
</svg>
