<?xml version="1.0" encoding="UTF-8" standalone="no"?>
<!-- Created with Inkscape (http://www.inkscape.org/) -->
<svg
   xmlns:svg="http://www.w3.org/2000/svg"
   xmlns="http://www.w3.org/2000/svg"
   version="1.0"
   width="150"
   height="200"
   id="svg2">
  <defs
     id="defs4" />
  <g
     transform="translate(-183.5369,-335.16815)"
     id="layer1">
    <path
       d="M 255.1619,357.91815 C 239.90371,357.91815 218.9119,369.91567 218.9119,393.91815 C 218.9119,420.91815 245.4119,439.91815 245.4119,439.91815 C 245.4119,439.91815 235.9119,458.41815 235.9119,475.16815 C 235.9119,494.66975 247.9119,512.41815 247.9119,512.41815 L 271.4119,499.41815 C 271.4119,499.41815 262.6619,487.41815 262.6619,473.41815 C 262.6619,450.16673 298.1619,422.66815 298.1619,401.16815 C 298.1619,391.90465 289.16417,357.91815 255.1619,357.91815 L 255.1619,357.91815 z M 255.9119,384.16815 C 265.5369,384.16815 271.4119,394.78982 271.4119,399.91815 C 271.4119,405.79448 261.1619,418.16815 261.1619,418.16815 C 261.1619,418.16815 245.0369,407.42366 245.0369,394.66815 C 245.0369,389.78588 249.5369,384.16815 255.9119,384.16815 z"
       id="path3119"
       style="fill:#000000;stroke:#000000" />
  </g>
</svg>
