<?xml version="1.0" encoding="UTF-8" standalone="no"?>
<!-- Created with Inkscape (http://www.inkscape.org/) -->
<svg
   xmlns:svg="http://www.w3.org/2000/svg"
   xmlns="http://www.w3.org/2000/svg"
   version="1.0"
   width="150"
   height="200"
   id="svg2">
  <defs
     id="defs4" />
  <g
     transform="translate(-183.5369,-335.16815)"
     id="layer1">
    <path
       d="M 223.00565,356.81555 C 219.52735,356.85476 215.96386,357.0343 212.2869,357.3468 L 218.5369,369.3468 C 267.7869,366.5968 278.0369,398.59414 278.0369,410.3468 C 278.0369,412.8555 277.67417,415.70546 276.88065,418.7218 C 261.27995,409.4986 239.47607,404.03603 212.2869,406.3468 L 218.5369,418.3468 C 244.67171,416.8875 259.82044,425.20418 268.2869,435.0968 C 259.59117,445.38282 244.32853,453.70481 219.5369,452.5968 L 213.0369,464.0968 C 239.17686,466.10757 261.10841,460.95767 276.9744,451.8468 C 277.71154,454.75226 278.0369,457.34458 278.0369,459.3468 C 278.0369,474.8468 264.2869,503.5968 219.5369,501.5968 L 213.0369,513.0968 C 268.2869,517.3468 304.7869,489.60251 304.7869,460.0968 C 304.7869,451.89205 301.76551,443.37137 296.00565,435.56555 C 301.70074,428.04844 304.7869,419.64464 304.7869,411.0968 C 304.7869,385.29661 275.18018,356.22747 223.00565,356.81555 L 223.00565,356.81555 z"
       id="path2668"
       style="fill:#000000;stroke:#000000" />
  </g>
</svg>
