<?xml version="1.0" encoding="UTF-8" standalone="no"?>
<!-- Created with Inkscape (http://www.inkscape.org/) -->
<svg
   xmlns:svg="http://www.w3.org/2000/svg"
   xmlns="http://www.w3.org/2000/svg"
   version="1.0"
   width="150"
   height="200"
   id="svg2">
  <defs
     id="defs4" />
  <g
     transform="translate(-183.5369,-335.16815)"
     id="layer1">
    <path
       d="M 298.39628,366.93377 L 284.61503,386.90252 C 284.61503,386.90252 300.70878,400.17834 300.70878,427.40252 C 300.70878,458.70447 279.30836,476.37127 258.27128,476.37127 C 237.82121,476.37127 216.55253,457.28189 216.55253,426.68377 C 216.55253,402.22379 231.39628,389.93377 231.39628,389.93377 L 214.95878,370.30877 C 214.95878,370.30877 192.52128,391.46152 192.52128,427.21502 C 192.52128,464.6823 219.91386,503.40252 258.27128,503.40252 C 300.70284,503.40253 324.55253,462.40345 324.55253,427.40252 C 324.55253,385.39582 298.39628,366.93377 298.39628,366.93377 z M 278.89628,412.18377 C 273.72128,412.18377 269.52128,416.38377 269.52128,421.55877 C 269.52128,426.73377 273.72128,430.93377 278.89628,430.93377 C 284.07128,430.93377 288.27128,426.73377 288.27128,421.55877 C 288.27128,416.38377 284.07128,412.18377 278.89628,412.18377 z M 238.77128,412.55877 C 233.59628,412.55877 229.39628,416.75877 229.39628,421.93377 C 229.39628,427.10877 233.59628,431.30877 238.77128,431.30877 C 243.94628,431.30877 248.14628,427.10877 248.14628,421.93377 C 248.14628,416.75877 243.94628,412.55877 238.77128,412.55877 z M 258.64628,442.93377 C 253.47128,442.93377 249.27128,447.13377 249.27128,452.30877 C 249.27128,457.48377 253.47128,461.68377 258.64628,461.68377 C 263.82128,461.68377 268.02128,457.48377 268.02128,452.30877 C 268.02128,447.13377 263.82128,442.93377 258.64628,442.93377 z"
       id="path3170"
       style="fill:#000000;stroke:#000000" />
  </g>
</svg>
