<?xml version="1.0" standalone="no"?>
<!DOCTYPE svg PUBLIC "-//W3C//DTD SVG 20010904//EN"
"http://www.w3.org/TR/2001/REC-SVG-20010904/DTD/svg10.dtd">
<svg version="1.0" xmlns="http://www.w3.org/2000/svg" width="83" height="128" viewBox="0 0 830.000000 1280.000000" preserveAspectRatio="xMidYMid meet">
  <g transform="translate(0.000000,1280.000000) scale(0.100000,-0.100000)" fill="#000000" stroke="none">
    <path d="M1485 12719 c-211 -144 -371 -276 -579 -479 -626 -613 -929 -1284 -903 -2005 38 -1050 558 -2095 1653 -3325 269 -302 439 -477 1204 -1240 965 -963 1136 -1150 1360 -1484 231 -347 280 -609 156 -853 -134 -267 -450 -523 -956 -777 -359 -181 -800 -354 -1187 -466 l-72 -21 13 -37 c8 -20 93 -246 189 -502 97 -256 266 -703 376 -995 l200 -530 39 2 c47 2 455 137 682 226 385 151 823 363 1130 547 1167 699 1796 1533 1889 2504 82 850 -345 1862 -1248 2956 -192 233 -610 688 -653 711 -10 6 -18 16 -16 23 2 8 797 902 1768 1987 1196 1339 1765 1981 1765 1996 0 17 -198 198 -824 754 l-825 732 -30 -35 c-17 -19 -798 -894 -1736 -1943 l-1705 -1908 -109 114 c-310 326 -548 693 -655 1014 -98 292 -99 544 -4 758 102 231 319 472 573 638 22 15 23 18 10 37 -8 12 -314 395 -680 851 -472 590 -671 830 -685 830 -11 1 -74 -36 -140 -80z"/>
  </g>
</svg>
