<?xml version="1.0" encoding="UTF-8" standalone="no"?>
<!-- Created with Inkscape (http://www.inkscape.org/) -->

<svg
   xmlns:dc="http://purl.org/dc/elements/1.1/"
   xmlns:cc="http://creativecommons.org/ns#"
   xmlns:rdf="http://www.w3.org/1999/02/22-rdf-syntax-ns#"
   xmlns:svg="http://www.w3.org/2000/svg"
   xmlns="http://www.w3.org/2000/svg"
   xmlns:sodipodi="http://sodipodi.sourceforge.net/DTD/sodipodi-0.dtd"
   xmlns:inkscape="http://www.inkscape.org/namespaces/inkscape"
   width="300"
   height="300"
   viewBox="0 0 300.00001 300.00001"
   id="svg2"
   version="1.1"
   inkscape:version="0.91 r13725"
   sodipodi:docname="B05.svg">
  <defs
     id="defs4" />
  <sodipodi:namedview
     id="base"
     pagecolor="#ffffff"
     bordercolor="#666666"
     borderopacity="1.0"
     inkscape:pageopacity="0.0"
     inkscape:pageshadow="2"
     inkscape:zoom="1.88"
     inkscape:cx="159.093"
     inkscape:cy="197.98226"
     inkscape:document-units="px"
     inkscape:current-layer="text4138"
     showgrid="false"
     units="px"
     inkscape:window-width="1920"
     inkscape:window-height="1016"
     inkscape:window-x="0"
     inkscape:window-y="27"
     inkscape:window-maximized="1" />
  <metadata
     id="metadata7">
    <rdf:RDF>
      <cc:Work
         rdf:about="">
        <dc:format>image/svg+xml</dc:format>
        <dc:type
           rdf:resource="http://purl.org/dc/dcmitype/StillImage" />
        <dc:title></dc:title>
      </cc:Work>
    </rdf:RDF>
  </metadata>
  <g
     inkscape:label="Layer 1"
     inkscape:groupmode="layer"
     id="layer1"
     transform="translate(0,-752.36216)">
    <g
       style="font-style:normal;font-weight:normal;font-size:40px;line-height:125%;font-family:Sans;letter-spacing:2px;word-spacing:0px;fill:#000000;fill-opacity:1;stroke:none;stroke-width:1px;stroke-linecap:butt;stroke-linejoin:miter;stroke-opacity:1"
       id="text4136">
      <text
         xml:space="preserve"
         style="font-style:normal;font-weight:normal;font-size:375px;line-height:125%;font-family:Sans;letter-spacing:2px;word-spacing:0px;fill:#000000;fill-opacity:1;stroke:none;stroke-width:1px;stroke-linecap:butt;stroke-linejoin:miter;stroke-opacity:1"
         x="56.930695"
         y="1033.5503"
         id="text4135"
         sodipodi:linespacing="125%"><tspan
           sodipodi:role="line"
           id="tspan4137"
           x="56.930695"
           y="1033.5503" /></text>
      <g
         style="font-style:normal;font-weight:normal;font-size:375px;line-height:125%;font-family:Sans;letter-spacing:2px;word-spacing:0px;fill:#000000;fill-opacity:1;stroke:none;stroke-width:1px;stroke-linecap:butt;stroke-linejoin:miter;stroke-opacity:1"
         id="text4259">
        <g
           style="font-style:normal;font-weight:normal;font-size:375px;line-height:125%;font-family:Sans;letter-spacing:2px;word-spacing:0px;fill:#000000;fill-opacity:1;stroke:none;stroke-width:1px;stroke-linecap:butt;stroke-linejoin:miter;stroke-opacity:1"
           id="text4138">
          <g
             transform="matrix(0,1,-1,0,0,0)"
             style="font-style:normal;font-weight:normal;font-size:375px;line-height:125%;font-family:Sans;letter-spacing:2px;word-spacing:0px;fill:#000000;fill-opacity:1;stroke:none;stroke-width:1px;stroke-linecap:butt;stroke-linejoin:miter;stroke-opacity:1"
             id="text4139">
            <path
               d="m 881.60962,-15.633518 q -0.91553,-2.380371 -1.64795,-6.774903 -0.73242,-4.577636 -1.28174,-10.253906 -0.54931,-5.859375 -0.91553,-12.268066 -0.36621,-6.408692 -0.36621,-12.817383 0,-13.549805 5.49317,-24.353027 5.49316,-10.986329 13.73291,-20.507817 8.23974,-9.70459 17.76123,-19.04296 9.52148,-9.33838 17.76123,-19.7754 8.23974,-10.43701 13.73291,-22.70507 5.49316,-12.45118 5.49316,-28.19825 0,-16.47949 -4.21142,-28.93066 -4.02832,-12.45117 -11.35254,-20.69092 -7.14112,-8.23974 -17.02881,-12.26806 -9.70459,-4.21143 -21.05713,-4.21143 -7.50732,0 -16.11328,2.74658 -8.60596,2.56348 -15.93018,8.60596 -7.14111,5.85937 -11.90185,15.38086 -4.76074,9.33838 -4.76074,22.88818 0,9.52149 2.38037,18.12744 2.38037,8.60596 7.50732,16.84571 5.12695,8.05664 13.00049,15.93017 7.87353,7.87354 18.85986,15.74707 l -21.97265,21.24024 q -13.73291,-10.25391 -23.07129,-21.05713 -9.33838,-10.98633 -15.19776,-21.97266 -5.85937,-10.98633 -8.42285,-21.97265 -2.56347,-10.98633 -2.56347,-21.78955 0,-21.60645 6.958,-36.25489 7.14112,-14.64844 18.31055,-23.4375 11.16943,-8.97217 25.08545,-12.63428 14.09912,-3.84521 27.83203,-3.84521 21.42334,0 36.98731,7.69043 15.74707,7.69043 26.00097,20.50781 10.25391,12.63428 15.19776,29.11377 4.94384,16.47949 4.94384,34.24072 0,18.49366 -5.67627,32.95899 -5.49316,14.46533 -13.91601,26.18408 -8.42285,11.71875 -18.31055,21.42334 -9.88769,9.52149 -18.31055,18.310548 -8.42285,8.789062 -14.09912,17.578125 -5.49316,8.789062 -5.49316,18.676757 0,5.859375 0.54932,12.084961 0.54931,6.225586 1.46484,12.084961 0.91553,5.67627 1.83105,10.437012 1.09864,4.577637 2.19727,6.958008 l -29.47998,0 z"
               style=""
               id="path4219" />
          </g>
        </g>
      </g>
    </g>
  </g>
</svg>
