<?xml version="1.0" encoding="UTF-8" standalone="no"?>
<!-- Created with Inkscape (http://www.inkscape.org/) -->

<svg
   xmlns:dc="http://purl.org/dc/elements/1.1/"
   xmlns:cc="http://creativecommons.org/ns#"
   xmlns:rdf="http://www.w3.org/1999/02/22-rdf-syntax-ns#"
   xmlns:svg="http://www.w3.org/2000/svg"
   xmlns="http://www.w3.org/2000/svg"
   xmlns:sodipodi="http://sodipodi.sourceforge.net/DTD/sodipodi-0.dtd"
   xmlns:inkscape="http://www.inkscape.org/namespaces/inkscape"
   width="300"
   height="300"
   viewBox="0 0 300.00001 300.00001"
   id="svg2"
   version="1.1"
   inkscape:version="0.91 r13725"
   sodipodi:docname="e02.svg">
  <defs
     id="defs4" />
  <sodipodi:namedview
     id="base"
     pagecolor="#ffffff"
     bordercolor="#666666"
     borderopacity="1.0"
     inkscape:pageopacity="0.0"
     inkscape:pageshadow="2"
     inkscape:zoom="1.01"
     inkscape:cx="375.74258"
     inkscape:cy="347.46802"
     inkscape:document-units="px"
     inkscape:current-layer="layer1"
     showgrid="false"
     units="px"
     inkscape:window-width="1920"
     inkscape:window-height="1016"
     inkscape:window-x="0"
     inkscape:window-y="27"
     inkscape:window-maximized="1" />
  <metadata
     id="metadata7">
    <rdf:RDF>
      <cc:Work
         rdf:about="">
        <dc:format>image/svg+xml</dc:format>
        <dc:type
           rdf:resource="http://purl.org/dc/dcmitype/StillImage" />
        <dc:title />
      </cc:Work>
    </rdf:RDF>
  </metadata>
  <g
     inkscape:label="Layer 1"
     inkscape:groupmode="layer"
     id="layer1"
     transform="translate(0,-752.36216)">
    <g
       style="font-style:normal;font-weight:normal;font-size:40px;line-height:125%;font-family:Sans;letter-spacing:2px;word-spacing:0px;fill:#000000;fill-opacity:1;stroke:none;stroke-width:1px;stroke-linecap:butt;stroke-linejoin:miter;stroke-opacity:1"
       id="text4136">
      <path
         d="m 212.87738,1016.5762 -11.35253,21.7895 q -14.46534,-6.7749 -26.7334,-14.0991 -12.08496,-7.3242 -22.33887,-15.1978 -10.43701,7.8736 -22.52197,15.1978 -12.08496,7.3242 -26.5503,14.0991 l -11.352535,-21.7895 q 11.718745,-6.5918 21.240235,-13.1836 9.70459,-6.59182 17.76123,-13.00051 -10.62012,-10.80322 -18.12744,-21.97266 -7.32422,-11.16943 -12.08496,-22.15576 -4.577639,-11.16943 -6.774905,-21.97265 -2.01416,-10.80323 -2.01416,-21.05713 0,-10.25391 2.01416,-21.05713 2.197266,-10.98633 6.774905,-21.97266 4.76074,-11.16943 12.08496,-22.33887 7.50732,-11.35253 18.12744,-22.15576 -8.05664,-6.40869 -17.76123,-13.00049 -9.52149,-6.59179 -21.240235,-13.36669 l 11.352535,-21.78956 q 14.46534,6.77491 26.5503,14.28223 12.08496,7.32422 22.52197,15.01465 10.25391,-7.69043 22.33887,-15.01465 12.26806,-7.50732 26.7334,-14.28223 l 11.35253,21.78956 q -23.07128,13.36669 -39.18457,26.36718 10.62012,10.80323 17.94434,22.15576 7.50732,11.16944 12.08496,22.33887 4.76074,10.98633 6.95801,21.97266 2.19726,10.80322 2.19726,21.05713 0,10.2539 -2.19726,21.05713 -2.19727,10.80322 -6.95801,21.97265 -4.57764,10.98633 -12.08496,22.15576 -7.32422,11.16944 -17.94434,21.97266 8.05664,6.40869 17.76123,13.00051 9.70459,6.5918 21.42334,13.1836 z M 180.65082,903.23389 q 0,-6.5918 -1.09863,-14.09912 -1.09863,-7.69043 -4.21143,-16.11329 -2.92968,-8.60595 -8.42285,-17.94433 -5.49316,-9.52149 -14.46533,-19.40918 -8.97217,9.88769 -14.46533,19.40918 -5.49317,9.33838 -8.60596,17.94433 -2.92969,8.42286 -4.02832,16.11329 -1.09863,7.50732 -1.09863,14.09912 0,6.59179 1.09863,14.28222 1.09863,7.50733 4.02832,16.11328 3.11279,8.42286 8.60596,17.76123 5.49316,9.15528 14.46533,19.04297 8.97217,-9.88769 14.46533,-19.04297 5.49317,-9.33837 8.42285,-17.76123 3.1128,-8.60595 4.21143,-16.11328 1.09863,-7.69043 1.09863,-14.28222 z"
         style="font-style:normal;font-variant:normal;font-weight:normal;font-stretch:normal;font-size:375px;font-family:'Segoe UI Symbol';-inkscape-font-specification:'Segoe UI Symbol'"
         id="path3336" />
    </g>
  </g>
</svg>
