<?xml version="1.0" encoding="UTF-8" standalone="no"?>
<!-- Created with Inkscape (http://www.inkscape.org/) -->

<svg
   xmlns:dc="http://purl.org/dc/elements/1.1/"
   xmlns:cc="http://creativecommons.org/ns#"
   xmlns:rdf="http://www.w3.org/1999/02/22-rdf-syntax-ns#"
   xmlns:svg="http://www.w3.org/2000/svg"
   xmlns="http://www.w3.org/2000/svg"
   xmlns:sodipodi="http://sodipodi.sourceforge.net/DTD/sodipodi-0.dtd"
   xmlns:inkscape="http://www.inkscape.org/namespaces/inkscape"
   width="300"
   height="300"
   viewBox="0 0 300.00001 300.00001"
   id="svg2"
   version="1.1"
   inkscape:version="0.91 r13725"
   sodipodi:docname="G01.svg">
  <defs
     id="defs4" />
  <sodipodi:namedview
     id="base"
     pagecolor="#ffffff"
     bordercolor="#666666"
     borderopacity="1.0"
     inkscape:pageopacity="0.0"
     inkscape:pageshadow="2"
     inkscape:zoom="1.88"
     inkscape:cx="159.093"
     inkscape:cy="185.51414"
     inkscape:document-units="px"
     inkscape:current-layer="text4138"
     showgrid="false"
     units="px"
     inkscape:window-width="1920"
     inkscape:window-height="1016"
     inkscape:window-x="0"
     inkscape:window-y="27"
     inkscape:window-maximized="1" />
  <metadata
     id="metadata7">
    <rdf:RDF>
      <cc:Work
         rdf:about="">
        <dc:format>image/svg+xml</dc:format>
        <dc:type
           rdf:resource="http://purl.org/dc/dcmitype/StillImage" />
        <dc:title></dc:title>
      </cc:Work>
    </rdf:RDF>
  </metadata>
  <g
     inkscape:label="Layer 1"
     inkscape:groupmode="layer"
     id="layer1"
     transform="translate(0,-752.36216)">
    <g
       style="font-style:normal;font-weight:normal;font-size:40px;line-height:125%;font-family:Sans;letter-spacing:2px;word-spacing:0px;fill:#000000;fill-opacity:1;stroke:none;stroke-width:1px;stroke-linecap:butt;stroke-linejoin:miter;stroke-opacity:1"
       id="text4136">
      <text
         xml:space="preserve"
         style="font-style:normal;font-weight:normal;font-size:375px;line-height:125%;font-family:Sans;letter-spacing:2px;word-spacing:0px;fill:#000000;fill-opacity:1;stroke:none;stroke-width:1px;stroke-linecap:butt;stroke-linejoin:miter;stroke-opacity:1"
         x="56.930695"
         y="1033.5503"
         id="text4135"
         sodipodi:linespacing="125%"><tspan
           sodipodi:role="line"
           id="tspan4137"
           x="56.930695"
           y="1033.5503" /></text>
      <g
         style="font-style:normal;font-weight:normal;font-size:375px;line-height:125%;font-family:Sans;letter-spacing:2px;word-spacing:0px;fill:#000000;fill-opacity:1;stroke:none;stroke-width:1px;stroke-linecap:butt;stroke-linejoin:miter;stroke-opacity:1"
         id="text4259">
        <g
           style="font-style:normal;font-weight:normal;font-size:375px;line-height:125%;font-family:Sans;letter-spacing:2px;word-spacing:0px;fill:#000000;fill-opacity:1;stroke:none;stroke-width:1px;stroke-linecap:butt;stroke-linejoin:miter;stroke-opacity:1"
           id="text4138">
          <text
             xml:space="preserve"
             style="font-style:normal;font-weight:normal;font-size:375px;line-height:125%;font-family:Sans;letter-spacing:2px;word-spacing:0px;fill:#000000;fill-opacity:1;stroke:none;stroke-width:1px;stroke-linecap:butt;stroke-linejoin:miter;stroke-opacity:1"
             x="47.127659"
             y="1030.3196"
             id="text4139"
             sodipodi:linespacing="125%"><tspan
               sodipodi:role="line"
               id="tspan4141"
               x="47.127659"
               y="1030.3196" /></text>
          <g
             style="font-style:normal;font-weight:normal;font-size:375px;line-height:125%;font-family:Sans;letter-spacing:2px;word-spacing:0px;fill:#000000;fill-opacity:1;stroke:none;stroke-width:1px;stroke-linecap:butt;stroke-linejoin:miter;stroke-opacity:1"
             id="text4240">
            <path
               d="m 163.28543,1036.4048 -30.76172,0 0,-131.28664 30.76172,0 0,131.28664 z m 34.42383,-114.07472 q -3.2959,-4.21143 -7.87354,-11.71875 -4.39453,-7.69043 -8.42285,-17.21192 -4.02832,-9.52148 -6.95801,-20.3247 -2.74658,-10.98633 -2.74658,-21.97266 0,-26.9165 14.64844,-46.14258 14.83154,-19.40918 44.31152,-34.05761 l 14.28223,25.45166 q -12.81739,6.22558 -21.24024,12.63427 -8.42285,6.40869 -13.5498,13.00049 -4.94385,6.5918 -6.95801,13.73291 -2.01416,6.95801 -2.01416,14.64844 0,8.42285 2.01416,16.29639 2.01416,7.87353 4.94385,14.83154 3.11279,6.95801 6.59179,13.00049 3.47901,6.04248 6.5918,10.80322 l -23.6206,17.02881 z M 74.479275,905.30127 q 3.112793,-4.76074 6.591797,-10.80322 3.479004,-6.04248 6.408691,-13.00049 3.112793,-6.95801 5.126953,-14.83154 2.01416,-7.87354 2.01416,-16.29639 0,-7.69043 -2.01416,-14.64844 -2.01416,-7.14111 -7.141113,-13.73291 -4.943848,-6.5918 -13.366699,-13.00049 -8.422852,-6.40869 -21.240235,-12.63427 l 14.282227,-25.45166 q 29.47998,14.64843 44.128414,34.05761 14.83155,19.22608 14.83155,46.14258 0,10.98633 -2.92969,21.97266 -2.74658,10.80322 -6.7749,20.3247 -4.02832,9.52149 -8.60596,17.21192 -4.39453,7.50732 -7.69043,11.71875 L 74.479275,905.30127 Z"
               style=""
               id="path4245" />
          </g>
        </g>
      </g>
    </g>
  </g>
</svg>
