<?xml version="1.0" encoding="UTF-8" standalone="no"?>
<!-- Created with Inkscape (http://www.inkscape.org/) -->

<svg
   xmlns:dc="http://purl.org/dc/elements/1.1/"
   xmlns:cc="http://creativecommons.org/ns#"
   xmlns:rdf="http://www.w3.org/1999/02/22-rdf-syntax-ns#"
   xmlns:svg="http://www.w3.org/2000/svg"
   xmlns="http://www.w3.org/2000/svg"
   xmlns:sodipodi="http://sodipodi.sourceforge.net/DTD/sodipodi-0.dtd"
   xmlns:inkscape="http://www.inkscape.org/namespaces/inkscape"
   width="300"
   height="300"
   viewBox="0 0 300.00001 300.00001"
   id="svg2"
   version="1.1"
   inkscape:version="0.91 r13725"
   sodipodi:docname="G04.svg">
  <defs
     id="defs4" />
  <sodipodi:namedview
     id="base"
     pagecolor="#ffffff"
     bordercolor="#666666"
     borderopacity="1.0"
     inkscape:pageopacity="0.0"
     inkscape:pageshadow="2"
     inkscape:zoom="1.88"
     inkscape:cx="61.22066"
     inkscape:cy="209.17911"
     inkscape:document-units="px"
     inkscape:current-layer="text4138"
     showgrid="false"
     units="px"
     inkscape:window-width="1920"
     inkscape:window-height="1016"
     inkscape:window-x="0"
     inkscape:window-y="27"
     inkscape:window-maximized="1" />
  <metadata
     id="metadata7">
    <rdf:RDF>
      <cc:Work
         rdf:about="">
        <dc:format>image/svg+xml</dc:format>
        <dc:type
           rdf:resource="http://purl.org/dc/dcmitype/StillImage" />
        <dc:title />
      </cc:Work>
    </rdf:RDF>
  </metadata>
  <g
     inkscape:label="Layer 1"
     inkscape:groupmode="layer"
     id="layer1"
     transform="translate(0,-752.36216)">
    <g
       style="font-style:normal;font-weight:normal;font-size:40px;line-height:125%;font-family:Sans;letter-spacing:2px;word-spacing:0px;fill:#000000;fill-opacity:1;stroke:none;stroke-width:1px;stroke-linecap:butt;stroke-linejoin:miter;stroke-opacity:1"
       id="text4136">
      <text
         xml:space="preserve"
         style="font-style:normal;font-weight:normal;font-size:375px;line-height:125%;font-family:Sans;letter-spacing:2px;word-spacing:0px;fill:#000000;fill-opacity:1;stroke:none;stroke-width:1px;stroke-linecap:butt;stroke-linejoin:miter;stroke-opacity:1"
         x="56.930695"
         y="1033.5503"
         id="text4135"
         sodipodi:linespacing="125%"><tspan
           sodipodi:role="line"
           id="tspan4137"
           x="56.930695"
           y="1033.5503" /></text>
      <g
         style="font-style:normal;font-weight:normal;font-size:375px;line-height:125%;font-family:Sans;letter-spacing:2px;word-spacing:0px;fill:#000000;fill-opacity:1;stroke:none;stroke-width:1px;stroke-linecap:butt;stroke-linejoin:miter;stroke-opacity:1"
         id="text4259">
        <g
           style="font-style:normal;font-weight:normal;font-size:375px;line-height:125%;font-family:Sans;letter-spacing:2px;word-spacing:0px;fill:#000000;fill-opacity:1;stroke:none;stroke-width:1px;stroke-linecap:butt;stroke-linejoin:miter;stroke-opacity:1"
           id="text4138">
          <path
             d="m 53.046875,768.48911 -14.28125,25.45118 c 8.544922,4.15038 15.625,8.36229 21.240234,12.63476 5.615235,4.27246 10.069336,8.60547 13.365235,13 3.417968,4.39453 5.799805,8.97364 7.142578,13.73438 1.342773,4.63867 2.013672,9.52148 2.013672,14.64843 0,5.61524 -0.670899,11.0459 -2.013672,16.29492 -1.342773,5.24902 -3.051758,10.19336 -5.126953,14.83204 -1.953126,4.63867 -4.090821,8.97168 -6.410157,13 -2.319335,4.02832 -4.516601,7.63086 -6.591796,10.80468 l 23.621093,17.02735 c 2.197266,-2.80762 4.761719,-6.71387 7.691407,-11.71875 3.040197,-5.10753 5.897464,-10.82163 8.574214,-17.14063 5.8148,2.44502 10.72249,5.19408 14.69922,8.25586 4.47016,3.31845 7.98971,7.09125 10.5586,11.31836 0.30906,0.50079 0.6086,1.00837 0.90039,1.52149 l 0,121.83982 30.76172,0 0,-122.42772 c 0.20049,-0.34318 0.39908,-0.6878 0.60742,-1.02539 2.56889,-4.22711 6.08843,-7.99991 10.55859,-11.31835 4.02619,-3.09986 9.00577,-5.87805 14.91602,-8.34571 0.0154,0.0365 0.0295,0.0748 0.0449,0.11133 2.68555,6.34765 5.49414,12.08398 8.42383,17.21094 3.05176,5.00488 5.67578,8.91113 7.87304,11.71875 l 23.6211,-17.02735 c -2.0752,-3.17382 -4.27247,-6.77636 -6.5918,-10.80468 -2.31934,-4.02832 -4.5166,-8.36133 -6.5918,-13 -1.95312,-4.63868 -3.60058,-9.58302 -4.94335,-14.83204 -1.34278,-5.24902 -2.01563,-10.67968 -2.01563,-16.29492 0,-5.12695 0.67285,-10.00976 2.01563,-14.64843 1.34277,-4.76074 3.66113,-9.33985 6.95703,-13.73438 3.41796,-4.39453 7.93554,-8.72754 13.55078,-13 5.61524,-4.27247 12.69531,-8.48438 21.24023,-12.63476 l -14.2832,-25.45118 c -19.65332,9.76563 -34.42285,21.11915 -44.31055,34.0586 -9.76562,12.81738 -14.64844,28.19824 -14.64844,46.14258 0,4.74823 0.3906,9.49591 1.16016,14.24414 -9.53663,3.66448 -17.8073,8.16234 -24.79101,13.50585 -3.43358,2.57013 -6.25252,4.64061 -8.64844,6.6211 -2.17345,-2.03929 -4.77839,-4.12417 -7.99414,-6.53125 -6.93756,-5.30819 -15.14668,-9.7784 -24.60352,-13.42969 0.84013,-4.80363 1.26953,-9.60653 1.26953,-14.41015 0,-17.94434 -4.94433,-33.3252 -14.832029,-46.14258 -9.765624,-12.93945 -24.475586,-24.29297 -44.128906,-34.0586 z"
             id="path4171"
             inkscape:connector-curvature="0" />
        </g>
      </g>
    </g>
  </g>
</svg>
