<?xml version="1.0" encoding="UTF-8" standalone="no"?>
<!-- Created with Inkscape (http://www.inkscape.org/) -->

<svg
   xmlns:dc="http://purl.org/dc/elements/1.1/"
   xmlns:cc="http://creativecommons.org/ns#"
   xmlns:rdf="http://www.w3.org/1999/02/22-rdf-syntax-ns#"
   xmlns:svg="http://www.w3.org/2000/svg"
   xmlns="http://www.w3.org/2000/svg"
   xmlns:sodipodi="http://sodipodi.sourceforge.net/DTD/sodipodi-0.dtd"
   xmlns:inkscape="http://www.inkscape.org/namespaces/inkscape"
   width="300"
   height="300"
   viewBox="0 0 300.00001 300.00001"
   id="svg2"
   version="1.1"
   inkscape:version="0.91 r13725"
   sodipodi:docname="k01.svg">
  <defs
     id="defs4" />
  <sodipodi:namedview
     id="base"
     pagecolor="#ffffff"
     bordercolor="#666666"
     borderopacity="1.0"
     inkscape:pageopacity="0.0"
     inkscape:pageshadow="2"
     inkscape:zoom="1.01"
     inkscape:cx="373.76238"
     inkscape:cy="347.46802"
     inkscape:document-units="px"
     inkscape:current-layer="layer1"
     showgrid="false"
     units="px"
     inkscape:window-width="1920"
     inkscape:window-height="1016"
     inkscape:window-x="0"
     inkscape:window-y="27"
     inkscape:window-maximized="1" />
  <metadata
     id="metadata7">
    <rdf:RDF>
      <cc:Work
         rdf:about="">
        <dc:format>image/svg+xml</dc:format>
        <dc:type
           rdf:resource="http://purl.org/dc/dcmitype/StillImage" />
        <dc:title></dc:title>
      </cc:Work>
    </rdf:RDF>
  </metadata>
  <g
     inkscape:label="Layer 1"
     inkscape:groupmode="layer"
     id="layer1"
     transform="translate(0,-752.36216)">
    <g
       style="font-style:normal;font-weight:normal;font-size:40px;line-height:125%;font-family:Sans;letter-spacing:2px;word-spacing:0px;fill:#000000;fill-opacity:1;stroke:none;stroke-width:1px;stroke-linecap:butt;stroke-linejoin:miter;stroke-opacity:1"
       id="text4136">
      <path
         d="m 77.576603,1032.5063 q 9.521484,-13.1835 14.282226,-29.2968 4.943848,-16.11331 4.943848,-34.97317 0,-9.15528 -1.281738,-18.67676 -1.098633,-9.52148 -3.479004,-18.67676 -2.380371,-9.15527 -6.042481,-17.76123 -3.662109,-8.60596 -8.422851,-15.93017 l 0,-3.84522 93.749997,28.93067 0,-150.32959 30.76172,0 0,262.57323 -30.76172,0 0,-82.76366 -51.63574,-15.93018 q 2.38037,7.69043 3.84522,17.21191 1.64794,9.33838 1.64794,17.39502 0,9.70459 -1.46484,18.85987 -1.28174,9.15527 -3.66211,17.39504 -2.19726,8.0566 -5.12695,15.1977 -2.92969,6.958 -6.22559,12.4512 l -31.127927,0 0,-1.8311 z"
         style="font-style:normal;font-variant:normal;font-weight:normal;font-stretch:normal;font-size:375px;font-family:'Segoe UI Symbol';-inkscape-font-specification:'Segoe UI Symbol'"
         id="path4576" />
    </g>
  </g>
</svg>
