<?xml version="1.0" encoding="UTF-8" standalone="no"?>
<!-- Created with Inkscape (http://www.inkscape.org/) -->

<svg
   xmlns:dc="http://purl.org/dc/elements/1.1/"
   xmlns:cc="http://creativecommons.org/ns#"
   xmlns:rdf="http://www.w3.org/1999/02/22-rdf-syntax-ns#"
   xmlns:svg="http://www.w3.org/2000/svg"
   xmlns="http://www.w3.org/2000/svg"
   xmlns:sodipodi="http://sodipodi.sourceforge.net/DTD/sodipodi-0.dtd"
   xmlns:inkscape="http://www.inkscape.org/namespaces/inkscape"
   width="300"
   height="300"
   viewBox="0 0 300.00001 300.00001"
   id="svg2"
   version="1.1"
   inkscape:version="0.91 r13725"
   sodipodi:docname="K05.svg">
  <defs
     id="defs4" />
  <sodipodi:namedview
     id="base"
     pagecolor="#ffffff"
     bordercolor="#666666"
     borderopacity="1.0"
     inkscape:pageopacity="0.0"
     inkscape:pageshadow="2"
     inkscape:zoom="1.6290957"
     inkscape:cx="116.02305"
     inkscape:cy="186.46059"
     inkscape:document-units="px"
     inkscape:current-layer="text4135"
     showgrid="false"
     units="px"
     inkscape:window-width="1920"
     inkscape:window-height="1016"
     inkscape:window-x="0"
     inkscape:window-y="27"
     inkscape:window-maximized="1" />
  <metadata
     id="metadata7">
    <rdf:RDF>
      <cc:Work
         rdf:about="">
        <dc:format>image/svg+xml</dc:format>
        <dc:type
           rdf:resource="http://purl.org/dc/dcmitype/StillImage" />
        <dc:title></dc:title>
      </cc:Work>
    </rdf:RDF>
  </metadata>
  <g
     inkscape:label="Layer 1"
     inkscape:groupmode="layer"
     id="layer1"
     transform="translate(0,-752.36216)">
    <g
       style="font-style:normal;font-weight:normal;font-size:40px;line-height:125%;font-family:Sans;letter-spacing:2px;word-spacing:0px;fill:#000000;fill-opacity:1;stroke:none;stroke-width:1px;stroke-linecap:butt;stroke-linejoin:miter;stroke-opacity:1"
       id="text4136">
      <g
         style="font-style:normal;font-weight:normal;font-size:375px;line-height:125%;font-family:Sans;letter-spacing:2px;word-spacing:0px;fill:#000000;fill-opacity:1;stroke:none;stroke-width:1px;stroke-linecap:butt;stroke-linejoin:miter;stroke-opacity:1"
         id="text4135">
        <text
           xml:space="preserve"
           style="font-style:normal;font-weight:normal;font-size:375px;line-height:125%;font-family:Sans;letter-spacing:2px;word-spacing:0px;fill:#000000;fill-opacity:1;stroke:none;stroke-width:1px;stroke-linecap:butt;stroke-linejoin:miter;stroke-opacity:1"
           x="53.403862"
           y="863.91406"
           id="text4137"
           sodipodi:linespacing="125%"><tspan
             sodipodi:role="line"
             id="tspan4139"
             x="53.403862"
             y="863.91406"></tspan><tspan
             sodipodi:role="line"
             x="53.403862"
             y="1332.6641"
             id="tspan4141" /></text>
        <g
           style="font-style:normal;font-weight:normal;font-size:375px;line-height:125%;font-family:Sans;letter-spacing:2px;word-spacing:0px;fill:#000000;fill-opacity:1;stroke:none;stroke-width:1px;stroke-linecap:butt;stroke-linejoin:miter;stroke-opacity:1"
           id="text4143">
          <path
             d="m 93.510715,773.16223 q 19.409185,0 35.156255,3.47901 15.74707,3.479 28.01513,9.33837 12.45117,5.67627 21.42334,13.1836 8.97217,7.50732 14.83155,15.56396 5.85937,8.05664 8.60595,16.11328 2.92969,8.05664 2.92969,15.01465 0,8.78907 -3.66211,17.76123 -3.479,8.78907 -10.0708,16.6626 -6.5918,7.69043 -15.93018,14.09912 -9.33838,6.22559 -21.05713,10.0708 11.71875,3.47901 21.05713,9.70459 9.52149,6.22559 16.11328,14.09912 6.5918,7.69043 10.07081,16.84571 3.479,8.97216 3.479,17.94433 0,6.95801 -2.74658,15.01465 -2.74658,8.05664 -8.60596,16.11328 -5.67627,8.05667 -14.64844,15.56397 -8.78906,7.5073 -21.24023,13.3667 -12.26807,5.6763 -28.19824,9.1553 -15.93018,3.479 -35.522465,3.479 l 0,-262.57327 z m 30.761715,117.37061 q 11.71875,-1.83106 20.69092,-6.5918 8.97217,-4.94385 15.01465,-11.16943 6.04248,-6.22559 9.15527,-13.1836 3.1128,-7.14111 3.1128,-13.73291 0,-5.85937 -3.47901,-12.45117 -3.2959,-6.7749 -9.52148,-12.63428 -6.22559,-6.04248 -15.19776,-10.62011 -8.78906,-4.57764 -19.77539,-6.4087 l 0,86.792 z m 0,114.62406 q 12.08497,-1.8311 21.05713,-6.40873 8.97217,-4.57764 14.83155,-10.43701 6.04248,-6.04248 8.97216,-12.63428 3.1128,-6.5918 3.1128,-12.63428 0,-6.59179 -3.1128,-13.5498 -2.92968,-6.95801 -8.97216,-13.1836 -6.04248,-6.22558 -15.01465,-10.98632 -8.97217,-4.76075 -20.87403,-6.95801 l 0,86.79203 z"
             style="font-style:normal;font-variant:normal;font-weight:normal;font-stretch:normal;font-family:'Segoe UI Symbol';-inkscape-font-specification:'Segoe UI Symbol'"
             id="path4170" />
        </g>
      </g>
    </g>
  </g>
</svg>
