<?xml version="1.0" encoding="UTF-8" standalone="no"?>
<!-- Created with Inkscape (http://www.inkscape.org/) -->

<svg
   xmlns:dc="http://purl.org/dc/elements/1.1/"
   xmlns:cc="http://creativecommons.org/ns#"
   xmlns:rdf="http://www.w3.org/1999/02/22-rdf-syntax-ns#"
   xmlns:svg="http://www.w3.org/2000/svg"
   xmlns="http://www.w3.org/2000/svg"
   xmlns:sodipodi="http://sodipodi.sourceforge.net/DTD/sodipodi-0.dtd"
   xmlns:inkscape="http://www.inkscape.org/namespaces/inkscape"
   width="300"
   height="300"
   viewBox="0 0 300.00001 300.00001"
   id="svg2"
   version="1.1"
   inkscape:version="0.91 r13725"
   sodipodi:docname="K04.svg">
  <defs
     id="defs4" />
  <sodipodi:namedview
     id="base"
     pagecolor="#ffffff"
     bordercolor="#666666"
     borderopacity="1.0"
     inkscape:pageopacity="0.0"
     inkscape:pageshadow="2"
     inkscape:zoom="1.88"
     inkscape:cx="159.093"
     inkscape:cy="193.98226"
     inkscape:document-units="px"
     inkscape:current-layer="text4138"
     showgrid="false"
     units="px"
     inkscape:window-width="1920"
     inkscape:window-height="1016"
     inkscape:window-x="0"
     inkscape:window-y="27"
     inkscape:window-maximized="1" />
  <metadata
     id="metadata7">
    <rdf:RDF>
      <cc:Work
         rdf:about="">
        <dc:format>image/svg+xml</dc:format>
        <dc:type
           rdf:resource="http://purl.org/dc/dcmitype/StillImage" />
        <dc:title></dc:title>
      </cc:Work>
    </rdf:RDF>
  </metadata>
  <g
     inkscape:label="Layer 1"
     inkscape:groupmode="layer"
     id="layer1"
     transform="translate(0,-752.36216)">
    <g
       style="font-style:normal;font-weight:normal;font-size:40px;line-height:125%;font-family:Sans;letter-spacing:2px;word-spacing:0px;fill:#000000;fill-opacity:1;stroke:none;stroke-width:1px;stroke-linecap:butt;stroke-linejoin:miter;stroke-opacity:1"
       id="text4136">
      <text
         xml:space="preserve"
         style="font-style:normal;font-weight:normal;font-size:375px;line-height:125%;font-family:Sans;letter-spacing:2px;word-spacing:0px;fill:#000000;fill-opacity:1;stroke:none;stroke-width:1px;stroke-linecap:butt;stroke-linejoin:miter;stroke-opacity:1"
         x="56.930695"
         y="1033.5503"
         id="text4135"
         sodipodi:linespacing="125%"><tspan
           sodipodi:role="line"
           id="tspan4137"
           x="56.930695"
           y="1033.5503" /></text>
      <g
         style="font-style:normal;font-weight:normal;font-size:375px;line-height:125%;font-family:Sans;letter-spacing:2px;word-spacing:0px;fill:#000000;fill-opacity:1;stroke:none;stroke-width:1px;stroke-linecap:butt;stroke-linejoin:miter;stroke-opacity:1"
         id="text4259">
        <g
           style="font-style:normal;font-weight:normal;font-size:375px;line-height:125%;font-family:Sans;letter-spacing:2px;word-spacing:0px;fill:#000000;fill-opacity:1;stroke:none;stroke-width:1px;stroke-linecap:butt;stroke-linejoin:miter;stroke-opacity:1"
           id="text4138">
          <g
             style="font-style:normal;font-weight:normal;font-size:375px;line-height:125%;font-family:Sans;letter-spacing:2px;word-spacing:0px;fill:#000000;fill-opacity:1;stroke:none;stroke-width:1px;stroke-linecap:butt;stroke-linejoin:miter;stroke-opacity:1"
             id="text4139">
            <path
               d="m 132.82102,767.74634 30.76172,0 0,218.62793 q 3.479,-3.1128 7.32422,-6.40869 3.29589,-2.74659 7.50732,-6.04248 4.21143,-3.47901 8.60596,-6.77491 6.40869,-4.76074 14.09912,-8.78906 7.69043,-4.02832 14.28222,-7.14111 7.69043,-3.47901 15.56397,-6.7749 l 10.98633,25.81787 q -6.95801,2.56347 -14.46533,6.04248 -6.4087,3.11279 -14.64844,7.69043 -8.23975,4.57763 -16.84571,10.43701 -8.78906,6.22559 -17.21191,13.36669 -8.23975,7.1411 -14.64844,13.3667 -7.50732,7.3242 -14.09912,14.4653 l -3.66211,0 q -6.7749,-7.1411 -14.28222,-14.4653 -6.4087,-6.2256 -14.64844,-13.3667 -8.23975,-7.1411 -17.02881,-13.36669 -8.605957,-5.85938 -16.845703,-10.43701 -8.239746,-4.57764 -14.648437,-7.69043 -7.507325,-3.47901 -14.465332,-6.04248 l 10.986328,-25.81787 q 7.873535,3.29589 15.563965,6.7749 6.591796,3.11279 14.282226,7.14111 7.690433,4.02832 14.099123,8.78906 4.39453,3.2959 8.60596,6.77491 4.21142,3.29589 7.50732,6.04248 3.84521,3.29589 7.32422,6.40869 l 0,-218.62793 z"
               style=""
               id="path4197" />
          </g>
        </g>
      </g>
    </g>
  </g>
</svg>
