<?xml version="1.0" encoding="UTF-8" standalone="no"?>
<!-- Created with Inkscape (http://www.inkscape.org/) -->

<svg
   xmlns:dc="http://purl.org/dc/elements/1.1/"
   xmlns:cc="http://creativecommons.org/ns#"
   xmlns:rdf="http://www.w3.org/1999/02/22-rdf-syntax-ns#"
   xmlns:svg="http://www.w3.org/2000/svg"
   xmlns="http://www.w3.org/2000/svg"
   xmlns:sodipodi="http://sodipodi.sourceforge.net/DTD/sodipodi-0.dtd"
   xmlns:inkscape="http://www.inkscape.org/namespaces/inkscape"
   width="300"
   height="300"
   viewBox="0 0 300.00001 300.00001"
   id="svg2"
   version="1.1"
   inkscape:version="0.91 r13725"
   sodipodi:docname="m03.svg">
  <defs
     id="defs4" />
  <sodipodi:namedview
     id="base"
     pagecolor="#ffffff"
     bordercolor="#666666"
     borderopacity="1.0"
     inkscape:pageopacity="0.0"
     inkscape:pageshadow="2"
     inkscape:zoom="1.01"
     inkscape:cx="373.76238"
     inkscape:cy="347.46802"
     inkscape:document-units="px"
     inkscape:current-layer="layer1"
     showgrid="false"
     units="px"
     inkscape:window-width="1920"
     inkscape:window-height="1016"
     inkscape:window-x="0"
     inkscape:window-y="27"
     inkscape:window-maximized="1" />
  <metadata
     id="metadata7">
    <rdf:RDF>
      <cc:Work
         rdf:about="">
        <dc:format>image/svg+xml</dc:format>
        <dc:type
           rdf:resource="http://purl.org/dc/dcmitype/StillImage" />
        <dc:title></dc:title>
      </cc:Work>
    </rdf:RDF>
  </metadata>
  <g
     inkscape:label="Layer 1"
     inkscape:groupmode="layer"
     id="layer1"
     transform="translate(0,-752.36216)">
    <path
       inkscape:connector-curvature="0"
       style="color:#000000;font-style:normal;font-variant:normal;font-weight:normal;font-stretch:normal;font-size:medium;line-height:normal;font-family:sans-serif;text-indent:0;text-align:start;text-decoration:none;text-decoration-line:none;text-decoration-style:solid;text-decoration-color:#000000;letter-spacing:normal;word-spacing:normal;text-transform:none;direction:ltr;block-progression:tb;writing-mode:lr-tb;baseline-shift:baseline;text-anchor:start;white-space:normal;clip-rule:nonzero;display:inline;overflow:visible;visibility:visible;opacity:1;isolation:auto;mix-blend-mode:normal;color-interpolation:sRGB;color-interpolation-filters:linearRGB;solid-color:#000000;solid-opacity:1;fill:#000000;fill-opacity:1;fill-rule:nonzero;stroke:none;stroke-width:5;stroke-linecap:butt;stroke-linejoin:miter;stroke-miterlimit:4;stroke-dasharray:none;stroke-dashoffset:0;stroke-opacity:1;color-rendering:auto;image-rendering:auto;shape-rendering:auto;text-rendering:auto;enable-background:accumulate"
       d="m 145.57964,782.80736 c -31.62908,0.65185 -58.299394,23.36402 -64.329574,54.5659 -3.12931,16.19179 -0.42023,32.55346 6.71984,46.78602 -17.89673,1.24422 -35.1736,8.75753 -48.04055,22.11422 -22.04785,22.88698 -25.27281,57.76044 -7.60482,84.00285 17.66804,26.24245 51.18141,37.73305 82.087084,28.73685 16.18542,-4.7114 29.71582,-14.6425 38.82144,-27.51151 9.10394,12.73831 22.56395,22.56061 38.63664,27.23921 30.90568,8.9962 64.41907,-2.4847 82.08709,-28.7271 17.66801,-26.2424 14.44302,-61.12562 -7.6048,-84.0126 -13.6272,-14.14588 -32.2014,-21.70251 -51.22054,-22.22118 6.28224,-15.51428 6.9809,-33.4236 1.17671,-50.3745 -10.42738,-30.45263 -39.09948,-51.24998 -70.72852,-50.59816 z m 0.50568,24.88578 c 20.26827,-0.41775 39.66904,13.3302 46.66936,33.77424 7.00032,20.44408 -0.005,41.55074 -16.43492,52.2903 l 13.62441,20.84023 c 0.66821,-0.43666 1.27784,-0.93303 1.92553,-1.39061 19.13094,-8.84229 42.40854,-4.62439 56.55948,10.06514 14.31535,14.86023 16.2037,36.01848 4.88185,52.83489 -11.32187,16.81642 -33.73989,24.76947 -54.48807,18.72996 -19.36397,-5.63663 -32.1624,-21.5797 -33.23939,-39.6286 0.0508,-1.48889 0.1001,-2.97655 0.0498,-4.48312 l -8.587,0.29177 -16.39603,-0.56403 c -0.0572,1.66666 -0.0199,3.31478 0.0498,4.95963 -1.05398,18.07393 -13.86431,34.054 -33.24914,39.6967 -20.748164,6.03956 -43.156454,-1.91363 -54.478324,-18.73001 -11.32187,-16.81641 -9.43351,-37.97465 4.88186,-52.83488 13.81605,-14.34189 36.3163,-18.68769 55.178534,-10.65836 1.75732,1.18841 3.57185,2.31742 5.4459,3.36479 l 12.13656,-21.73493 c -1.67647,-0.93701 -3.25863,-1.99148 -4.79433,-3.10223 l 0.0397,-0.0877 c -0.12498,-0.0602 -0.25395,-0.1061 -0.37941,-0.1653 -15.32253,-11.28359 -23.32704,-30.76964 -19.78999,-49.07138 3.91532,-20.25896 20.12857,-33.97892 40.39683,-34.39661 z"
       id="path5259" />
  </g>
</svg>
