<?xml version="1.0" encoding="UTF-8" standalone="no"?>
<!-- Created with Inkscape (http://www.inkscape.org/) -->

<svg
   xmlns:dc="http://purl.org/dc/elements/1.1/"
   xmlns:cc="http://creativecommons.org/ns#"
   xmlns:rdf="http://www.w3.org/1999/02/22-rdf-syntax-ns#"
   xmlns:svg="http://www.w3.org/2000/svg"
   xmlns="http://www.w3.org/2000/svg"
   xmlns:sodipodi="http://sodipodi.sourceforge.net/DTD/sodipodi-0.dtd"
   xmlns:inkscape="http://www.inkscape.org/namespaces/inkscape"
   width="300"
   height="300"
   viewBox="0 0 300.00001 300.00001"
   id="svg2"
   version="1.1"
   inkscape:version="0.91 r13725"
   sodipodi:docname="ND00.svg">
  <defs
     id="defs4" />
  <sodipodi:namedview
     id="base"
     pagecolor="#ffffff"
     bordercolor="#666666"
     borderopacity="1.0"
     inkscape:pageopacity="0.0"
     inkscape:pageshadow="2"
     inkscape:zoom="1.6290957"
     inkscape:cx="57.094653"
     inkscape:cy="224.80867"
     inkscape:document-units="px"
     inkscape:current-layer="text4136"
     showgrid="false"
     units="px"
     inkscape:window-width="1920"
     inkscape:window-height="1016"
     inkscape:window-x="0"
     inkscape:window-y="27"
     inkscape:window-maximized="1" />
  <metadata
     id="metadata7">
    <rdf:RDF>
      <cc:Work
         rdf:about="">
        <dc:format>image/svg+xml</dc:format>
        <dc:type
           rdf:resource="http://purl.org/dc/dcmitype/StillImage" />
        <dc:title></dc:title>
      </cc:Work>
    </rdf:RDF>
  </metadata>
  <g
     inkscape:label="Layer 1"
     inkscape:groupmode="layer"
     id="layer1"
     transform="translate(0,-752.36216)">
    <g
       style="font-style:normal;font-weight:normal;font-size:40px;line-height:125%;font-family:Sans;letter-spacing:2px;word-spacing:0px;fill:#000000;fill-opacity:1;stroke:none;stroke-width:1px;stroke-linecap:butt;stroke-linejoin:miter;stroke-opacity:1"
       id="text4136">
      <g
         style="font-style:normal;font-weight:normal;font-size:375px;line-height:125%;font-family:Sans;letter-spacing:2px;word-spacing:0px;fill:#000000;fill-opacity:1;stroke:none;stroke-width:1px;stroke-linecap:butt;stroke-linejoin:miter;stroke-opacity:1"
         id="text4155">
        <path
           d="m 287.35105,901.45288 c 0,18.9209 -2.99072,36.6211 -8.97217,53.10059 -5.98145,16.47949 -14.77051,30.82275 -26.36719,43.02978 -11.47461,12.20705 -25.63476,21.85055 -42.48047,28.93065 -16.8457,7.0801 -36.13281,10.6201 -57.86132,10.6201 -21.85059,0 -41.19873,-3.54 -58.044437,-10.6201 -16.845703,-7.0801 -31.066895,-16.7236 -42.663575,-28.93065 -11.474609,-12.20703 -20.202637,-26.55029 -26.184082,-43.02978 -5.981445,-16.47949 -8.972168,-34.17969 -8.972168,-53.10059 0,-20.01953 2.746582,-38.33008 8.239746,-54.93164 5.615235,-16.72363 14.038086,-31.06689 25.268555,-43.02978 11.352539,-11.96289 25.512696,-21.24024 42.480469,-27.83204 16.967772,-6.59179 36.865232,-9.88769 59.692382,-9.88769 22.82715,0 42.72461,3.2959 59.69238,9.88769 17.08985,6.5918 31.25,15.86915 42.48047,27.83204 11.35254,11.96289 19.77539,26.30615 25.26856,43.02978 5.61523,16.60156 8.42285,34.91211 8.42285,54.93164 z m -239.318849,0 c 0,14.4043 2.197266,28.13721 6.591797,41.19873 4.516601,13.06153 11.108398,24.53614 19.77539,34.42383 8.789063,9.88769 19.592287,17.76121 32.409672,23.62056 12.93945,5.8594 27.83203,8.7891 44.67773,8.7891 16.84571,0 31.73829,-2.9297 44.67774,-8.7891 12.93945,-5.85935 23.74267,-13.73287 32.40966,-23.62056 8.78907,-9.88769 15.38086,-21.3623 19.77539,-34.42383 4.51661,-13.06152 6.77491,-26.79443 6.77491,-41.19873 0,-14.64844 -2.13623,-28.50342 -6.4087,-41.56494 -4.27246,-13.06153 -10.68115,-24.4751 -19.22607,-34.24072 -8.54492,-9.8877 -19.34814,-17.7002 -32.40967,-23.4375 -12.93945,-5.73731 -28.07617,-8.60596 -45.41015,-8.60596 -17.45606,0 -32.65382,2.86865 -45.59327,8.60596 -12.93945,5.7373 -23.742671,13.5498 -32.409664,23.4375 -8.544921,9.76562 -14.953613,21.17919 -19.226074,34.24072 -4.272461,13.06152 -6.408691,26.9165 -6.408691,41.56494 z"
           id="path4204"
           inkscape:connector-curvature="0"
           sodipodi:nodetypes="sscssscssccsscccsscccssccssccsscss" />
      </g>
      <g
         style="font-style:normal;font-weight:normal;font-size:375px;line-height:125%;font-family:Sans;letter-spacing:2px;word-spacing:0px;fill:#000000;fill-opacity:1;stroke:none;stroke-width:1px;stroke-linecap:butt;stroke-linejoin:miter;stroke-opacity:1"
         id="text4137">
        <path
           d="m 153.5069,960.43279 q -8.42285,0 -14.46533,-6.04248 -5.85938,-6.04248 -5.85938,-14.46533 0,-8.42285 5.85938,-14.28223 6.04248,-5.85937 14.46533,-5.85937 8.60596,0 14.64844,5.85937 6.04248,5.85938 6.04248,14.28223 0,8.42285 -6.04248,14.46533 -6.04248,6.04248 -14.64844,6.04248 z"
           id="path4157"
           inkscape:connector-curvature="0" />
        <path
           d="m 108.49127,909.23406 q -8.42285,0 -14.465329,-6.04248 -5.85937,-6.04248 -5.85937,-14.46533 0,-8.42285 5.85937,-14.28223 6.042479,-5.85937 14.465329,-5.85937 8.60596,0 14.64844,5.85937 6.04248,5.85938 6.04248,14.28223 0,8.42285 -6.04248,14.46533 -6.04248,6.04248 -14.64844,6.04248 z"
           id="path4155"
           inkscape:connector-curvature="0" />
        <path
           d="m 198.52253,909.23406 q -8.42285,0 -14.46533,-6.04248 -5.85938,-6.04248 -5.85938,-14.46533 0,-8.42285 5.85938,-14.28223 6.04248,-5.85937 14.46533,-5.85937 8.60596,0 14.64844,5.85937 6.04248,5.85938 6.04248,14.28223 0,8.42285 -6.04248,14.46533 -6.04248,6.04248 -14.64844,6.04248 z"
           id="path4142"
           inkscape:connector-curvature="0" />
      </g>
    </g>
  </g>
</svg>
