<?xml version="1.0" encoding="UTF-8" standalone="no"?>
<!-- Created with Inkscape (http://www.inkscape.org/) -->

<svg
   xmlns:dc="http://purl.org/dc/elements/1.1/"
   xmlns:cc="http://creativecommons.org/ns#"
   xmlns:rdf="http://www.w3.org/1999/02/22-rdf-syntax-ns#"
   xmlns:svg="http://www.w3.org/2000/svg"
   xmlns="http://www.w3.org/2000/svg"
   xmlns:sodipodi="http://sodipodi.sourceforge.net/DTD/sodipodi-0.dtd"
   xmlns:inkscape="http://www.inkscape.org/namespaces/inkscape"
   width="300"
   height="300"
   viewBox="0 0 300.00001 300.00001"
   id="svg2"
   version="1.1"
   inkscape:version="0.92.2 (5c3e80d, 2017-08-06)"
   sodipodi:docname="_NN01.svg">
  <defs
     id="defs4" />
  <sodipodi:namedview
     id="base"
     pagecolor="#ffffff"
     bordercolor="#666666"
     borderopacity="1.0"
     inkscape:pageopacity="0.0"
     inkscape:pageshadow="2"
     inkscape:zoom="2.8567114"
     inkscape:cx="292.34291"
     inkscape:cy="152.40504"
     inkscape:document-units="px"
     inkscape:current-layer="layer1"
     showgrid="false"
     units="px"
     inkscape:window-width="2048"
     inkscape:window-height="1088"
     inkscape:window-x="0"
     inkscape:window-y="27"
     inkscape:window-maximized="1" />
  <metadata
     id="metadata7">
    <rdf:RDF>
      <cc:Work
         rdf:about="">
        <dc:format>image/svg+xml</dc:format>
        <dc:type
           rdf:resource="http://purl.org/dc/dcmitype/StillImage" />
        <dc:title />
      </cc:Work>
    </rdf:RDF>
  </metadata>
  <g
     inkscape:label="Layer 1"
     inkscape:groupmode="layer"
     id="layer1"
     transform="translate(0,-752.36216)">
    <g
       aria-label="£"
       style="font-style:normal;font-weight:normal;font-size:40px;line-height:1.25;font-family:sans-serif;letter-spacing:0px;word-spacing:0px;fill:#000000;fill-opacity:1;stroke:none"
       id="text3726">
      <path
         d="m 106.94577,769.92334 -16.875,30.23437 19.6875,9.14063 19.6875,13.35937 q 11.95313,9.14063 29.17969,35.15625 l -76.640627,58.35938 18.984377,30.23437 70.3125,-54.84375 q 2.46094,23.90625 1.05469,36.5625 -1.40625,12.65625 -4.21875,26.71875 -2.8125,14.0625 -9.31641,28.82813 -6.50391,14.76562 -16.17188,26.71876 -9.66796,11.9531 -21.97265,26.0156 h 44.29687 q 16.17188,-18.2812 23.20313,-31.289 7.03125,-13.00786 10.54687,-26.01567 3.51563,-13.00782 5.625,-26.36719 2.10938,-13.35938 2.98828,-26.19141 0.87891,-12.83203 0,-26.01562 -0.8789,-13.1836 -5.09765,-27.2461 -7.91016,-26.36718 -18.98438,-42.1875 -25.66406,-36.91406 -76.28906,-61.17187 z"
         style="font-style:normal;font-variant:normal;font-weight:normal;font-stretch:normal;font-size:360px;font-family:Runic;-inkscape-font-specification:Runic"
         id="path3738" />
    </g>
  </g>
</svg>
