<?xml version="1.0" encoding="UTF-8" standalone="no"?>
<!-- Created with Inkscape (http://www.inkscape.org/) -->

<svg
   xmlns:dc="http://purl.org/dc/elements/1.1/"
   xmlns:cc="http://creativecommons.org/ns#"
   xmlns:rdf="http://www.w3.org/1999/02/22-rdf-syntax-ns#"
   xmlns:svg="http://www.w3.org/2000/svg"
   xmlns="http://www.w3.org/2000/svg"
   xmlns:sodipodi="http://sodipodi.sourceforge.net/DTD/sodipodi-0.dtd"
   xmlns:inkscape="http://www.inkscape.org/namespaces/inkscape"
   width="300"
   height="300"
   viewBox="0 0 300.00001 300.00001"
   id="svg2"
   version="1.1"
   inkscape:version="0.92.2 (5c3e80d, 2017-08-06)"
   sodipodi:docname="_NN04.svg">
  <defs
     id="defs4" />
  <sodipodi:namedview
     id="base"
     pagecolor="#ffffff"
     bordercolor="#666666"
     borderopacity="1.0"
     inkscape:pageopacity="0.0"
     inkscape:pageshadow="2"
     inkscape:zoom="2.8567114"
     inkscape:cx="292.34291"
     inkscape:cy="159.61046"
     inkscape:document-units="px"
     inkscape:current-layer="layer1"
     showgrid="false"
     units="px"
     inkscape:window-width="2048"
     inkscape:window-height="1088"
     inkscape:window-x="0"
     inkscape:window-y="27"
     inkscape:window-maximized="1" />
  <metadata
     id="metadata7">
    <rdf:RDF>
      <cc:Work
         rdf:about="">
        <dc:format>image/svg+xml</dc:format>
        <dc:type
           rdf:resource="http://purl.org/dc/dcmitype/StillImage" />
        <dc:title></dc:title>
      </cc:Work>
    </rdf:RDF>
  </metadata>
  <g
     inkscape:label="Layer 1"
     inkscape:groupmode="layer"
     id="layer1"
     transform="translate(0,-752.36216)">
    <g
       aria-label="¦"
       style="font-style:normal;font-weight:normal;font-size:40px;line-height:1.25;font-family:sans-serif;letter-spacing:0px;word-spacing:0px;fill:#000000;fill-opacity:1;stroke:none"
       id="text3726">
      <path
         d="m 249.46294,902.81702 q 0.17578,14.9414 -3.86719,29.88281 -5.09765,19.16016 -20.5664,40.60547 -19.86328,27.5977 -76.64063,61.1719 -46.23047,-25.1367 -74.355467,-60.293 -12.480469,-15.64453 -19.6875,-33.75 -6.679688,-16.69921 -6.328125,-35.85937 0.351562,-15.46875 5.625,-34.80469 4.746093,-17.57812 18.457031,-37.26562 25.664062,-36.91407 76.289061,-61.17188 45.35156,21.6211 76.64063,61.17188 11.77734,14.76562 20.21484,40.78125 4.21875,13.35937 4.21875,29.53125 z m -83.67187,-82.08985 q 0,0 -0.52735,64.16016 h -35.15625 l -1.05469,-62.75391 q -46.582027,37.08985 -46.582027,83.14453 -0.175782,43.94532 43.417967,76.46485 l 22.32422,14.76562 23.02734,-14.76562 q 40.42969,-29.17969 44.1211,-77.8711 2.63672,-33.57421 -49.57031,-83.14453 z"
         style="font-style:normal;font-variant:normal;font-weight:normal;font-stretch:normal;font-size:360px;font-family:Runic;-inkscape-font-specification:Runic"
         id="path3807" />
    </g>
  </g>
</svg>
