<?xml version="1.0" encoding="UTF-8" standalone="no"?>
<!-- Created with Inkscape (http://www.inkscape.org/) -->

<svg
   xmlns:dc="http://purl.org/dc/elements/1.1/"
   xmlns:cc="http://creativecommons.org/ns#"
   xmlns:rdf="http://www.w3.org/1999/02/22-rdf-syntax-ns#"
   xmlns:svg="http://www.w3.org/2000/svg"
   xmlns="http://www.w3.org/2000/svg"
   xmlns:sodipodi="http://sodipodi.sourceforge.net/DTD/sodipodi-0.dtd"
   xmlns:inkscape="http://www.inkscape.org/namespaces/inkscape"
   width="300"
   height="300"
   viewBox="0 0 300.00001 300.00001"
   id="svg2"
   version="1.1"
   inkscape:version="0.91 r13725"
   sodipodi:docname="i00.svg">
  <defs
     id="defs4" />
  <sodipodi:namedview
     id="base"
     pagecolor="#ffffff"
     bordercolor="#666666"
     borderopacity="1.0"
     inkscape:pageopacity="0.0"
     inkscape:pageshadow="2"
     inkscape:zoom="1.01"
     inkscape:cx="375.74258"
     inkscape:cy="347.46802"
     inkscape:document-units="px"
     inkscape:current-layer="text4136"
     showgrid="false"
     units="px"
     inkscape:window-width="1920"
     inkscape:window-height="1016"
     inkscape:window-x="0"
     inkscape:window-y="27"
     inkscape:window-maximized="1" />
  <metadata
     id="metadata7">
    <rdf:RDF>
      <cc:Work
         rdf:about="">
        <dc:format>image/svg+xml</dc:format>
        <dc:type
           rdf:resource="http://purl.org/dc/dcmitype/StillImage" />
        <dc:title />
      </cc:Work>
    </rdf:RDF>
  </metadata>
  <g
     inkscape:label="Layer 1"
     inkscape:groupmode="layer"
     id="layer1"
     transform="translate(0,-752.36216)">
    <g
       style="font-style:normal;font-weight:normal;font-size:40px;line-height:125%;font-family:Sans;letter-spacing:2px;word-spacing:0px;fill:#000000;fill-opacity:1;stroke:none;stroke-width:1px;stroke-linecap:butt;stroke-linejoin:miter;stroke-opacity:1"
       id="text4136">
      <path
         d="m 79.942814,1034.5205 q 0,-19.4092 3.845215,-37.35351 3.845215,-18.12744 12.634277,-34.60693 8.789064,-16.47949 23.071294,-31.31104 14.46533,-14.83154 35.33935,-27.83203 Q 133.77582,890.2334 119.4936,875.40186 105.21137,860.57031 96.422306,844.09082 87.633244,827.42822 83.788029,809.48389 79.942814,791.35645 79.942814,771.94727 l 32.226566,0 q 0,11.90185 1.28173,23.25439 1.46485,11.16943 5.31006,21.97266 3.84522,10.80322 10.62012,21.42334 6.7749,10.62011 17.57813,21.05713 10.98632,10.43701 26.36718,21.05712 15.56397,10.43702 36.6211,21.05713 l 0,2.92969 q -21.05713,10.80322 -36.6211,21.24023 -15.38086,10.43702 -26.36718,20.87403 -10.80323,10.43701 -17.57813,21.05713 -6.7749,10.62011 -10.62012,21.42334 -3.84521,10.80324 -5.31006,22.15574 -1.28173,11.1695 -1.28173,23.0713 l -32.226566,0 z"
         style="font-style:normal;font-variant:normal;font-weight:normal;font-stretch:normal;font-size:375px;font-family:'Segoe UI Symbol';-inkscape-font-specification:'Segoe UI Symbol'"
         id="path3336" />
    </g>
  </g>
</svg>
