<?xml version="1.0" encoding="UTF-8" standalone="no"?>
<!-- Created with Inkscape (http://www.inkscape.org/) -->

<svg
   xmlns:dc="http://purl.org/dc/elements/1.1/"
   xmlns:cc="http://creativecommons.org/ns#"
   xmlns:rdf="http://www.w3.org/1999/02/22-rdf-syntax-ns#"
   xmlns:svg="http://www.w3.org/2000/svg"
   xmlns="http://www.w3.org/2000/svg"
   xmlns:sodipodi="http://sodipodi.sourceforge.net/DTD/sodipodi-0.dtd"
   xmlns:inkscape="http://www.inkscape.org/namespaces/inkscape"
   width="300"
   height="300"
   viewBox="0 0 300.00001 300.00001"
   id="svg2"
   version="1.1"
   inkscape:version="0.91 r13725"
   sodipodi:docname="Y02.svg">
  <defs
     id="defs4" />
  <sodipodi:namedview
     id="base"
     pagecolor="#ffffff"
     bordercolor="#666666"
     borderopacity="1.0"
     inkscape:pageopacity="0.0"
     inkscape:pageshadow="2"
     inkscape:zoom="1.6290957"
     inkscape:cx="116.02305"
     inkscape:cy="186.46059"
     inkscape:document-units="px"
     inkscape:current-layer="text4135"
     showgrid="false"
     units="px"
     inkscape:window-width="1920"
     inkscape:window-height="1016"
     inkscape:window-x="0"
     inkscape:window-y="27"
     inkscape:window-maximized="1" />
  <metadata
     id="metadata7">
    <rdf:RDF>
      <cc:Work
         rdf:about="">
        <dc:format>image/svg+xml</dc:format>
        <dc:type
           rdf:resource="http://purl.org/dc/dcmitype/StillImage" />
        <dc:title></dc:title>
      </cc:Work>
    </rdf:RDF>
  </metadata>
  <g
     inkscape:label="Layer 1"
     inkscape:groupmode="layer"
     id="layer1"
     transform="translate(0,-752.36216)">
    <g
       style="font-style:normal;font-weight:normal;font-size:40px;line-height:125%;font-family:Sans;letter-spacing:2px;word-spacing:0px;fill:#000000;fill-opacity:1;stroke:none;stroke-width:1px;stroke-linecap:butt;stroke-linejoin:miter;stroke-opacity:1"
       id="text4136">
      <g
         style="font-style:normal;font-weight:normal;font-size:375px;line-height:125%;font-family:Sans;letter-spacing:2px;word-spacing:0px;fill:#000000;fill-opacity:1;stroke:none;stroke-width:1px;stroke-linecap:butt;stroke-linejoin:miter;stroke-opacity:1"
         id="text4135">
        <text
           xml:space="preserve"
           style="font-style:normal;font-weight:normal;font-size:375px;line-height:125%;font-family:Sans;letter-spacing:2px;word-spacing:0px;fill:#000000;fill-opacity:1;stroke:none;stroke-width:1px;stroke-linecap:butt;stroke-linejoin:miter;stroke-opacity:1"
           x="53.403862"
           y="863.91406"
           id="text4137"
           sodipodi:linespacing="125%"><tspan
             sodipodi:role="line"
             id="tspan4139"
             x="53.403862"
             y="863.91406"></tspan><tspan
             sodipodi:role="line"
             x="53.403862"
             y="1332.6641"
             id="tspan4141" /></text>
        <g
           style="font-style:normal;font-weight:normal;font-size:375px;line-height:125%;font-family:Sans;letter-spacing:2px;word-spacing:0px;fill:#000000;fill-opacity:1;stroke:none;stroke-width:1px;stroke-linecap:butt;stroke-linejoin:miter;stroke-opacity:1"
           id="text4143">
          <path
             d="m 133.1323,1035.7355 q -0.91553,-2.3804 -1.64795,-6.7749 -0.73242,-4.5777 -1.28174,-10.2539 -0.54932,-5.8594 -0.91553,-12.2681 -0.36621,-6.4087 -0.36621,-12.81738 0,-13.54981 5.49317,-24.35303 5.49316,-10.98633 13.73291,-20.50781 8.23974,-9.70459 17.76123,-19.04297 9.52148,-9.33838 17.76123,-19.77539 8.23974,-10.43702 13.73291,-22.70508 5.49316,-12.45117 5.49316,-28.19824 0,-16.4795 -4.21142,-28.93067 -4.02832,-12.45117 -11.35254,-20.69092 -7.14112,-8.23974 -17.02881,-12.26806 -9.70459,-4.21143 -21.05713,-4.21143 -7.50733,0 -16.11328,2.74658 -8.60596,2.56348 -15.93018,8.60596 -7.14111,5.85938 -11.90185,15.38086 -4.76075,9.33838 -4.76075,22.88818 0,9.52149 2.38038,18.12745 2.38037,8.60595 7.50732,16.8457 5.12695,8.05664 13.00049,15.93017 7.87353,7.87354 18.85986,15.74707 l -21.97266,21.24024 Q 106.582,920.19592 97.243626,909.3927 87.905247,898.40637 82.045872,887.42004 76.186497,876.43372 73.62302,865.44739 q -2.563476,-10.98633 -2.563476,-21.78955 0,-21.60645 6.958007,-36.25489 7.141114,-14.64843 18.310547,-23.4375 11.169432,-8.97216 25.085452,-12.63427 14.09912,-3.84522 27.83203,-3.84522 21.42334,0 36.9873,7.69043 15.74707,7.69043 26.00098,20.50781 10.25391,12.63428 15.19775,29.11377 4.94385,16.4795 4.94385,34.24073 0,18.49365 -5.67627,32.95898 -5.49316,14.46533 -13.91601,26.18408 -8.42286,11.71875 -18.31055,21.42334 -9.8877,9.52149 -18.31055,18.31055 -8.42285,8.78906 -14.09912,17.57812 -5.49316,8.78907 -5.49316,18.67676 0,5.85937 0.54931,12.08497 0.54932,6.2256 1.46485,12.085 0.91553,5.6762 1.83105,10.437 1.09864,4.5776 2.19727,6.958 l -29.47998,0 z"
             style="font-style:normal;font-variant:normal;font-weight:normal;font-stretch:normal;font-family:'Segoe UI Symbol';-inkscape-font-specification:'Segoe UI Symbol'"
             id="path4214" />
        </g>
      </g>
    </g>
  </g>
</svg>
