<?xml version="1.0" encoding="UTF-8" standalone="no"?>
<!-- Created with Inkscape (http://www.inkscape.org/) -->

<svg
   xmlns:dc="http://purl.org/dc/elements/1.1/"
   xmlns:cc="http://creativecommons.org/ns#"
   xmlns:rdf="http://www.w3.org/1999/02/22-rdf-syntax-ns#"
   xmlns:svg="http://www.w3.org/2000/svg"
   xmlns="http://www.w3.org/2000/svg"
   xmlns:sodipodi="http://sodipodi.sourceforge.net/DTD/sodipodi-0.dtd"
   xmlns:inkscape="http://www.inkscape.org/namespaces/inkscape"
   width="300"
   height="300"
   viewBox="0 0 300.00001 300.00001"
   id="svg2"
   version="1.1"
   inkscape:version="0.91 r13725"
   sodipodi:docname="z03.svg">
  <defs
     id="defs4" />
  <sodipodi:namedview
     id="base"
     pagecolor="#ffffff"
     bordercolor="#666666"
     borderopacity="1.0"
     inkscape:pageopacity="0.0"
     inkscape:pageshadow="2"
     inkscape:zoom="1.6290957"
     inkscape:cx="199.50495"
     inkscape:cy="187.40992"
     inkscape:document-units="px"
     inkscape:current-layer="text4135"
     showgrid="false"
     units="px"
     inkscape:window-width="1920"
     inkscape:window-height="1016"
     inkscape:window-x="0"
     inkscape:window-y="27"
     inkscape:window-maximized="1" />
  <metadata
     id="metadata7">
    <rdf:RDF>
      <cc:Work
         rdf:about="">
        <dc:format>image/svg+xml</dc:format>
        <dc:type
           rdf:resource="http://purl.org/dc/dcmitype/StillImage" />
        <dc:title></dc:title>
      </cc:Work>
    </rdf:RDF>
  </metadata>
  <g
     inkscape:label="Layer 1"
     inkscape:groupmode="layer"
     id="layer1"
     transform="translate(0,-752.36216)">
    <g
       style="font-style:normal;font-weight:normal;font-size:40px;line-height:125%;font-family:Sans;letter-spacing:2px;word-spacing:0px;fill:#000000;fill-opacity:1;stroke:none;stroke-width:1px;stroke-linecap:butt;stroke-linejoin:miter;stroke-opacity:1"
       id="text4136">
      <g
         style="font-style:normal;font-weight:normal;font-size:375px;line-height:125%;font-family:Sans;letter-spacing:2px;word-spacing:0px;fill:#000000;fill-opacity:1;stroke:none;stroke-width:1px;stroke-linecap:butt;stroke-linejoin:miter;stroke-opacity:1"
         id="text4135">
        <path
           d="m 69.209762,789.86217 c -1.095231,3.39282 -2.154038,7.94447 -3.179687,13.65235 -1.098184,5.86454 -1.814678,12.23874 -2.148438,19.12304 -0.333764,6.88429 -0.120267,14.02205 0.642578,21.41407 0.690307,7.54866 2.298448,14.76107 4.822266,21.63672 6.183354,16.84534 16.123463,29.57985 29.822265,38.20507 6.559614,4.22756 14.077944,7.70757 22.535164,10.45508 l -37.955085,54.79102 24.734375,18.29101 45.98047,-66.3789 c 5.25216,1.11044 9.96129,2.41585 14.12695,3.91797 6.6375,2.39342 12.24449,5.17541 16.82227,8.34375 4.46132,3.20491 8.04621,6.87605 10.75391,11.01562 2.6711,4.02314 4.77614,8.48171 6.3125,13.37305 1.68268,5.35717 2.66905,10.7402 2.96093,16.15039 0.29188,5.41018 0.20185,10.62009 -0.27148,15.63086 -0.58981,5.04736 -1.38894,9.84064 -2.39453,14.37893 -1.00561,4.5382 -2.02205,8.6315 -3.05078,12.2812 l 27.63867,9.1699 c 1.25495,-3.337 2.58826,-7.8516 4,-13.541 1.25868,-5.7692 2.21699,-12.0845 2.87695,-18.94528 0.65995,-6.86071 0.84366,-14.01815 0.54883,-21.47461 -0.44791,-7.53633 -1.77004,-14.79948 -3.96484,-21.78711 -5.37729,-17.11971 -14.64499,-30.32891 -27.80274,-39.63086 -8.56028,-6.03353 -18.86059,-10.82952 -30.88086,-14.40039 l 34.40235,-49.66406 -24.73438,-18.29102 -42.57226,61.45899 c -2.30719,-0.52832 -4.50499,-1.10162 -6.56055,-1.73438 -6.74356,-2.07586 -12.41901,-4.60798 -17.02735,-7.59766 -4.72292,-2.94761 -8.53453,-6.42518 -11.43554,-10.43164 -2.85896,-3.89188 -5.172785,-8.24368 -6.939458,-13.05664 -1.934928,-5.27132 -3.176413,-10.60195 -3.724609,-15.99219 -0.548203,-5.39025 -0.646556,-10.62174 -0.296875,-15.6914 0.235091,-5.0276 0.745969,-9.83131 1.535156,-14.41211 0.78919,-4.58082 1.612352,-8.71758 2.466797,-12.41211 l -28.042969,-7.84766 z"
           id="path4168"
           inkscape:connector-curvature="0" />
      </g>
    </g>
  </g>
</svg>
